<svg xmlns="http://www.w3.org/2000/svg" viewBox="0 0 128 128"><path fill="#181717" d="M64 0C28.7 0 0 28.7 0 64s28.7 64 64 64 64-28.7 64-64S99.3 0 64 0zm32.7 114.4c-1.5 0-2.8.3-3.9.8-3.7 1.6-6.2 5.2-6.2 9.3 0 4.1 2.5 7.7 6.2 9.3 1.1.5 2.4.8 3.9.8 5.6 0 10.2-4.6 10.2-10.2s-4.5-10-10.2-10zm0-96.8c5.6 0 10.2-4.6 10.2-10.2S102.3 0 96.7 0s-10.2 4.6-10.2 10.2 4.6 10.2 10.2 10.2zM31.3 106.8c-5.6 0-10.2 4.6-10.2 10.2s4.6 10.2 10.2 10.2 10.2-4.6 10.2-10.2-4.6-10.2-10.2-10.2z"/><path fill="#181717" d="M64 24C42.9 24 25.9 41 25.9 62.1c0 16.7 10.7 30.9 25.7 36.2V78.7c-6.3-4.7-10.4-12.2-10.4-20.6 0-15.5 13.3-28 28-28s28 12.5 28 28c0 8.4-4.1 15.9-10.4 20.6v19.6c15-5.3 25.7-19.5 25.7-36.2C102.1 41 85.1 24 64 24z"/></svg>
