<svg xmlns="http://www.w3.org/2000/svg" viewBox="0 0 128 128"><path fill="#FFB13B" d="M127.3 56.8v-8.4h1.3V52h-1.3v-3.6h0V52h-0.9v-3.6h0.9v11.3h0zM88.2 56.9V52s0.2-0.8 0.3-1.1l0.4-0.2 0.5 0.2c0.1 0.3 0.3 1.1 0.3 1.1v4.9l-1.5 0zM85.4 56.8v-8.4h0.9V52h-0.9v-3.6h-0.9V52h0.9v11.3h0.9v-6.5h0zM127.3 48.4h-38.9 -2.2H88.2 -0.9V52h0.9 83.2v3.6h0.9V52h1.3v11.3h-1.3v-6.5h-0.9v-0.8h0.9v-0.8h0.9v0.8h-0.9V59h0.9v-6.2h0.9v-3.6h0.9V52h-0.9v-3.6h0.9v-0.8h-0.9V52h-0.9v-0.8h-0.9V56.8h-0.9V52h-0.9v3.6h-0.9V52h-0.9v3.6h-0.9V52h0.9v-0.8h-0.9V52h-0.9v-3.6h-0.9V52h-0.9v-0.8h-0.9V56.8h-0.9V52h-0.9v3.6h-0.9V52h0.9v-0.8h-0.9V52h-0.9v-3.6h-0.9V52h-0.9v-0.8h-0.9V56.8h-0.9V52h-0.9v3.6h-0.9V52h0.9v-0.8h-0.9V52h-0.9v-3.6h-0.9V52h-0.9v-0.8h-0.9V56.8h-0.9V52h-0.9v3.6h-0.9V52h0.9v-0.8h-0.9V52h-0.9v-3.6h-0.9V52h-0.9v-0.8h-0.9V56.8h-0.9V52h-0.9v3.6h-0.9V52h0.9v-0.8h-0.9V52h-0.9v-3.6h-0.9V52h-0.9v-0.8h-0.9V86.4h41.1V48.4h0z"/></svg>
