<svg xmlns="http://www.w3.org/2000/svg" viewBox="0 0 128 128"><path fill="#FF6F00" d="M116 108.1c-12.7 7.3-28.9 7.3-41.6 0-12.7-7.3-20.5-20.8-20.5-35.5s7.8-28.2 20.5-35.5c12.7-7.3 28.9-7.3 41.6 0 12.7 7.3 20.5 20.8 20.5 35.5s-7.9 28.2-20.5 35.5z"/><path fill="#FF6F00" opacity=".7" d="M74.5 108.1c-12.7 7.3-28.9 7.3-41.6 0-12.7-7.3-20.5-20.8-20.5-35.5s7.8-28.2 20.5-35.5c12.7-7.3 28.9-7.3 41.6 0 12.7 7.3 20.5 20.8 20.5 35.5s-7.8 28.2-20.5 35.5z"/><path fill="#fff" d="M95.5 72.6L64 54.4 32.5 72.6l31.5 18.2 31.5-18.2z"/></svg>
